<svg width="23" height="27" viewBox="0 0 23 27" fill="none" xmlns="http://www.w3.org/2000/svg">
<path d="M20.1484 24H7.35156V7.64844H20.1484V24ZM20.1484 5.35156H7.35156C6.69531 5.35156 6.13021 5.58854 5.65625 6.0625C5.21875 6.5 5 7.02865 5 7.64844V24C5 24.6562 5.21875 25.2031 5.65625 25.6406C6.13021 26.1146 6.69531 26.3516 7.35156 26.3516H20.1484C20.8047 26.3516 21.3516 26.1146 21.7891 25.6406C22.263 25.2031 22.5 24.6562 22.5 24V7.64844C22.5 7.02865 22.263 6.5 21.7891 6.0625C21.3516 5.58854 20.8047 5.35156 20.1484 5.35156ZM16.6484 0.648438H2.64844C2.02865 0.648438 1.48177 0.885417 1.00781 1.35938C0.570312 1.79688 0.351562 2.34375 0.351562 3V19.3516H2.64844V3H16.6484V0.648438Z" fill="white"/>
</svg>
