<svg width="36" height="36" viewBox="0 0 36 36" fill="none" xmlns="http://www.w3.org/2000/svg">
<g clip-path="url(#clip0_31_88)">
<path d="M18 3C12.195 3 7.5 7.695 7.5 13.5C7.5 21.375 18 33 18 33C18 33 28.5 21.375 28.5 13.5C28.5 7.695 23.805 3 18 3ZM10.5 13.5C10.5 9.36 13.86 6 18 6C22.14 6 25.5 9.36 25.5 13.5C25.5 17.82 21.18 24.285 18 28.32C14.88 24.315 10.5 17.775 10.5 13.5Z" fill="white"/>
<path d="M18 17.25C20.0711 17.25 21.75 15.5711 21.75 13.5C21.75 11.4289 20.0711 9.75 18 9.75C15.9289 9.75 14.25 11.4289 14.25 13.5C14.25 15.5711 15.9289 17.25 18 17.25Z" fill="white"/>
</g>
<defs>
<clipPath id="clip0_31_88">
<rect width="36" height="36" fill="white"/>
</clipPath>
</defs>
</svg>
