<svg width="36" height="36" viewBox="0 0 36 36" fill="none" xmlns="http://www.w3.org/2000/svg">
<g clip-path="url(#clip0_31_62)">
<path d="M9.81 7.5C9.9 8.835 10.125 10.14 10.485 11.385L8.685 13.185C8.07 11.385 7.68 9.48 7.545 7.5H9.81M24.6 25.53C25.875 25.89 27.18 26.115 28.5 26.205V28.44C26.52 28.305 24.615 27.915 22.8 27.315L24.6 25.53M11.25 4.5H6C5.175 4.5 4.5 5.175 4.5 6C4.5 20.085 15.915 31.5 30 31.5C30.825 31.5 31.5 30.825 31.5 30V24.765C31.5 23.94 30.825 23.265 30 23.265C28.14 23.265 26.325 22.965 24.645 22.41C24.495 22.35 24.33 22.335 24.18 22.335C23.79 22.335 23.415 22.485 23.115 22.77L19.815 26.07C15.57 23.895 12.09 20.43 9.93 16.185L13.23 12.885C13.65 12.465 13.77 11.88 13.605 11.355C13.05 9.675 12.75 7.875 12.75 6C12.75 5.175 12.075 4.5 11.25 4.5Z" fill="white"/>
</g>
<defs>
<clipPath id="clip0_31_62">
<rect width="36" height="36" fill="white"/>
</clipPath>
</defs>
</svg>
