<svg width="20" height="20" viewBox="0 0 20 20" fill="none" xmlns="http://www.w3.org/2000/svg">
<path fill-rule="evenodd" clip-rule="evenodd" d="M0 1C0 0.447715 0.447715 0 1 0H6C6.55228 0 7 0.447715 7 1V6C7 6.55228 6.55228 7 6 7H1C0.447715 7 0 6.55228 0 6V1ZM2 2V5H5V2H2ZM13 1C13 0.447715 13.4477 0 14 0H19C19.5523 0 20 0.447715 20 1V6C20 6.55228 19.5523 7 19 7H14C13.4477 7 13 6.55228 13 6V1ZM15 2V5H18V2H15ZM10 1C10.5523 1 11 1.44772 11 2V3C11 3.55228 10.5523 4 10 4C9.44771 4 9 3.55228 9 3V2C9 1.44772 9.44771 1 10 1ZM10 5.5C10.5523 5.5 11 5.94772 11 6.5V9H13C13.5523 9 14 9.44771 14 10C14 10.5523 13.5523 11 13 11H11V13.5C11 14.0523 10.5523 14.5 10 14.5C9.44771 14.5 9 14.0523 9 13.5V11H2C1.44772 11 1 10.5523 1 10C1 9.44771 1.44772 9 2 9H9V6.5C9 5.94772 9.44771 5.5 10 5.5ZM16 10C16 9.44771 16.4477 9 17 9H18C18.5523 9 19 9.44771 19 10C19 10.5523 18.5523 11 18 11H17C16.4477 11 16 10.5523 16 10ZM0 14C0 13.4477 0.447715 13 1 13H6C6.55228 13 7 13.4477 7 14V19C7 19.5523 6.55228 20 6 20H1C0.447715 20 0 19.5523 0 19V14ZM2 15V18H5V15H2ZM13 14C13 13.4477 13.4477 13 14 13H19C19.5523 13 20 13.4477 20 14V19C20 19.5523 19.5523 20 19 20H14C13.4477 20 13 19.5523 13 19V14ZM15 15V18H18V15H15ZM10 15.5C10.5523 15.5 11 15.9477 11 16.5V17.5C11 18.0523 10.5523 18.5 10 18.5C9.44771 18.5 9 18.0523 9 17.5V16.5C9 15.9477 9.44771 15.5 10 15.5Z" fill="white"/>
</svg>
