<svg width="20" height="22" viewBox="0 0 20 22" fill="none" xmlns="http://www.w3.org/2000/svg">
<path fill-rule="evenodd" clip-rule="evenodd" d="M12.2217 3.77778C12.2217 1.69137 13.9131 0 15.9995 0C18.0859 0 19.7772 1.69137 19.7772 3.77778C19.7772 5.86417 18.0859 7.55556 15.9995 7.55556C13.9131 7.55556 12.2217 5.86417 12.2217 3.77778ZM15.9995 2C15.0176 2 14.2217 2.79594 14.2217 3.77778C14.2217 4.7596 15.0176 5.55556 15.9995 5.55556C16.9813 5.55556 17.7772 4.7596 17.7772 3.77778C17.7772 2.79594 16.9813 2 15.9995 2Z" fill="white"/>
<path fill-rule="evenodd" clip-rule="evenodd" d="M0 11C0 8.9136 1.69138 7.22221 3.77778 7.22221C5.86417 7.22221 7.55556 8.9136 7.55556 11C7.55556 13.0864 5.86417 14.7778 3.77778 14.7778C1.69138 14.7778 0 13.0864 0 11ZM3.77778 9.22221C2.79595 9.22221 2 10.0182 2 11C2 11.9818 2.79595 12.7778 3.77778 12.7778C4.7596 12.7778 5.55556 11.9818 5.55556 11C5.55556 10.0182 4.7596 9.22221 3.77778 9.22221Z" fill="white"/>
<path fill-rule="evenodd" clip-rule="evenodd" d="M14.0778 4.68987C14.364 5.16222 14.2131 5.77714 13.7407 6.06332L6.7068 10.3249C6.23445 10.6111 5.61953 10.4602 5.33335 9.98784C5.04717 9.51548 5.19809 8.90057 5.67045 8.61439L12.7044 4.35278C13.1767 4.06659 13.7917 4.21752 14.0778 4.68987Z" fill="white"/>
<path fill-rule="evenodd" clip-rule="evenodd" d="M5.32771 11.9157C5.60867 11.4402 6.22189 11.2825 6.69737 11.5635L14.1087 15.9429C14.5842 16.2239 14.7419 16.8371 14.4609 17.3126C14.1799 17.788 13.5667 17.9457 13.0912 17.6648L5.6799 13.2853C5.20443 13.0044 5.04674 12.3911 5.32771 11.9157Z" fill="white"/>
<path fill-rule="evenodd" clip-rule="evenodd" d="M15.9995 16.4444C15.0176 16.4444 14.2217 17.2404 14.2217 18.2222C14.2217 19.204 15.0176 20 15.9995 20C16.9813 20 17.7772 19.204 17.7772 18.2222C17.7772 17.2404 16.9813 16.4444 15.9995 16.4444ZM12.2217 18.2222C12.2217 16.1358 13.9131 14.4444 15.9995 14.4444C18.0859 14.4444 19.7772 16.1358 19.7772 18.2222C19.7772 20.3086 18.0859 22 15.9995 22C13.9131 22 12.2217 20.3086 12.2217 18.2222Z" fill="white"/>
</svg>
