<svg width="36" height="36" viewBox="0 0 36 36" fill="none" xmlns="http://www.w3.org/2000/svg">
<path d="M11.25 3C6.693 3 3 6.693 3 11.25C3 13.0965 3.6132 14.7934 4.6377 16.1689C4.5567 16.7689 4.5 17.3775 4.5 18C4.5 25.4565 10.5435 31.5 18 31.5C18.6225 31.5 19.2311 31.4433 19.8311 31.3623C21.2066 32.3868 22.9035 33 24.75 33C29.307 33 33 29.307 33 24.75C33 22.9035 32.3868 21.2066 31.3623 19.8311C31.4433 19.2311 31.5 18.6225 31.5 18C31.5 10.5435 25.4565 4.5 18 4.5C17.3775 4.5 16.7689 4.5567 16.1689 4.6377C14.7934 3.6132 13.0965 3 11.25 3ZM11.25 6C12.3795 6 13.4624 6.36047 14.3789 7.04297L15.3574 7.77539L16.5703 7.61133C17.1313 7.53483 17.586 7.5 18 7.5C23.79 7.5 28.5 12.21 28.5 18C28.5 18.414 28.4652 18.8672 28.3887 19.4297L28.2246 20.6426L28.957 21.6211C29.6395 22.5376 30 23.6205 30 24.75C30 27.645 27.645 30 24.75 30C23.6205 30 22.5376 29.6395 21.6211 28.957L20.6426 28.2246L19.4297 28.3887C18.8672 28.4637 18.414 28.5 18 28.5C12.21 28.5 7.5 23.79 7.5 18C7.5 17.586 7.53483 17.1328 7.61133 16.5703L7.77539 15.3574L7.04297 14.3789C6.36047 13.4624 6 12.3795 6 11.25C6 8.355 8.355 6 11.25 6ZM17.7744 10.5C12.1344 10.5 11.7188 13.8134 11.7188 14.6309C11.7188 16.2569 12.6511 17.5198 14.2441 18.1318C15.9376 18.7828 17.9932 19.1732 19.1602 19.4912C20.9857 19.9907 20.7539 20.9966 20.7539 21.1436C20.7539 22.6886 18.6378 23.0865 17.7363 23.001C16.7163 22.905 15.6829 23.1964 14.6074 20.9824C14.4154 20.5864 14.0625 19.7197 13.002 19.7197C12.543 19.7197 11.3965 20.0691 11.3965 21.1641C11.3965 23.3121 13.7948 25.5 17.9678 25.5C20.1488 25.5 24.2167 24.745 24.2197 20.833C24.2197 17.4265 20.7838 16.8287 18.2578 16.1777C17.5663 15.9992 14.9883 15.7143 14.9883 14.3643C14.9883 13.9638 15.5488 13.002 17.5693 13.002C19.6498 13.002 20.1029 13.9759 20.3789 14.4814C20.6099 14.8819 20.7997 15.1913 21.0322 15.3398C21.9547 15.9293 22.7962 15.4775 23.0947 15.167C23.3932 14.8565 23.543 14.514 23.543 14.124C23.543 12.4275 21.5364 10.5 17.7744 10.5Z" fill="white"/>
</svg>
