<svg width="36" height="36" viewBox="0 0 36 36" fill="none" xmlns="http://www.w3.org/2000/svg">
<path d="M30.8584 4.51757C30.3598 4.4647 29.8179 4.54256 29.2734 4.75781C28.5984 5.02331 18.0216 9.47254 8.16211 13.623L4.9043 14.9941C3.6428 15.5056 3.00586 16.3375 3.00586 17.458C3.00586 18.2425 3.33788 19.3066 4.92188 19.9336L10.4209 22.1367C10.8964 23.5632 12.0008 26.8754 12.2783 27.7559C12.4433 28.2779 12.8601 29.5929 13.9131 29.9004C14.1291 29.9739 14.3545 30.0117 14.584 30.0117C15.2485 30.0117 15.7269 29.7025 15.9609 29.5225L19.4561 26.5664L23.7012 30.4922C23.8647 30.6587 24.7301 31.5 25.8926 31.5C27.3431 31.5 28.4434 30.2925 28.6729 29.124C28.7974 28.4835 32.8916 7.93059 32.8916 7.93359C33.2591 6.28509 32.5983 5.42992 32.1738 5.06542C31.8101 4.75417 31.357 4.57045 30.8584 4.51757ZM29.8652 7.75781C29.2997 10.5928 26.217 26.0673 25.749 28.2978L19.5439 22.5586L15.334 26.124L16.5 21.5625C16.5 21.5625 24.5438 13.4203 25.0283 12.9463C25.4183 12.5668 25.5 12.4338 25.5 12.3018C25.5 12.1263 25.4097 12 25.2012 12C25.0137 12 24.759 12.1797 24.624 12.2637C22.909 13.3329 15.6061 17.4934 12.0117 19.5381L6.79688 17.4551L9.32812 16.3916C15.7766 13.6766 27.2612 8.84081 29.8652 7.75781Z" fill="white"/>
</svg>
