<svg width="36" height="36" viewBox="0 0 36 36" fill="none" xmlns="http://www.w3.org/2000/svg">
<path d="M15.75 4.5C8.88852 4.5 3 9.01572 3 15C3 17.0787 3.83544 18.9585 5.0625 20.5576L4.37402 28.2393L9.90234 24.2373C11.559 24.9498 13.3846 25.4176 15.3516 25.4766C16.4381 28.9574 19.9616 31.4414 24 31.4414C25.279 31.4414 26.4037 31.0334 27.4893 30.5947L33.1436 32.9209L32.083 26.3789C32.552 25.4033 33 24.3907 33 23.2207C33 20.1179 31.1293 17.4765 28.4268 16.0752C28.4707 15.7208 28.5 15.3629 28.5 15C28.5 9.01572 22.6115 4.5 15.75 4.5ZM15.75 7.5C21.3145 7.5 25.5 11.0423 25.5 15C25.5 15.0419 25.4892 15.0813 25.4883 15.123C25.0016 15.0479 24.5064 15 24 15C19.4038 15 15.4667 18.215 15.041 22.459C13.3073 22.3603 11.7017 21.9281 10.3477 21.2285L9.52734 20.8037L7.94824 21.9492L8.14746 19.7051L7.7168 19.2217C6.60876 17.981 6 16.5474 6 15C6 11.0423 10.1855 7.5 15.75 7.5ZM11.7422 9.92285C10.7702 9.92285 9.98438 10.7159 9.98438 11.6924C9.98438 12.6704 10.7702 13.5 11.7422 13.5C12.7142 13.5 13.5 12.6689 13.5 11.6924C13.5 10.7159 12.7142 9.92285 11.7422 9.92285ZM19.7959 9.92285C18.8239 9.92285 18 10.7159 18 11.6924C18 12.6704 18.8224 13.5 19.7959 13.5C20.7679 13.5 21.5537 12.6704 21.5537 11.6924C21.5537 10.7159 20.7664 9.92285 19.7959 9.92285ZM24 18C27.415 18 30 20.4147 30 23.2207C30 24.0685 29.7438 24.8639 29.2852 25.623L29.001 26.0947L29.0889 26.6396L29.3262 28.1045L27.6035 27.3955L26.9912 27.709C26.0909 28.1666 25.0871 28.4414 24 28.4414C20.585 28.4414 18 26.0267 18 23.2207C18 20.4147 20.585 18 24 18ZM21.0322 21C20.2042 21 19.5 21.6705 19.5 22.5C19.5 23.3295 20.2087 24 21.0322 24C21.8557 24 22.5234 23.3295 22.5234 22.5C22.5234 21.6705 21.8572 21 21.0322 21ZM26.9883 21C26.5935 21.0003 26.2149 21.1585 25.9358 21.4398C25.6568 21.721 25.5 22.1024 25.5 22.5C25.5 22.8976 25.6568 23.279 25.9358 23.5602C26.2149 23.8415 26.5935 23.9997 26.9883 24C27.184 24.0002 27.3779 23.9616 27.5588 23.8863C27.7397 23.811 27.9041 23.7006 28.0426 23.5613C28.1811 23.422 28.291 23.2565 28.3659 23.0744C28.4409 22.8923 28.4795 22.6971 28.4795 22.5C28.4795 22.3029 28.4409 22.1077 28.3659 21.9256C28.291 21.7435 28.1811 21.578 28.0426 21.4387C27.9041 21.2994 27.7397 21.189 27.5588 21.1137C27.3779 21.0384 27.184 20.9998 26.9883 21Z" fill="white"/>
</svg>
