<svg width="36" height="36" viewBox="0 0 36 36" fill="none" xmlns="http://www.w3.org/2000/svg">
<path d="M18.0176 3C9.75858 3 3.03523 9.71756 3.03223 17.9766C3.03073 20.6166 3.7222 23.1938 5.0332 25.4648L3 33L10.8486 31.1455C13.0371 32.3395 15.5008 32.9663 18.0088 32.9678H18.0146C26.2722 32.9678 32.9926 26.2487 32.9971 17.9912C33.0001 13.9877 31.4433 10.2236 28.6143 7.3916C25.7853 4.5611 22.0256 3.0015 18.0176 3ZM18.0146 6C21.2186 6.0015 24.2297 7.2507 26.4932 9.5127C28.7567 11.7777 30.0001 14.7873 29.9971 17.9883C29.9941 24.5943 24.6207 29.9678 18.0117 29.9678C16.0122 29.9663 14.0316 29.4642 12.2871 28.5117L11.2764 27.9609L10.1602 28.2246L7.20703 28.9219L7.92773 26.2441L8.25293 25.043L7.63184 23.9648C6.58484 22.1528 6.03073 20.0811 6.03223 17.9766C6.03523 11.3736 11.4101 6 18.0146 6ZM12.7148 11.0625C12.4643 11.0625 12.0593 11.1562 11.7158 11.5312C11.3723 11.9047 10.4033 12.8094 10.4033 14.6514C10.4033 16.4934 11.7451 18.2739 11.9326 18.5244C12.1186 18.7734 14.5226 22.6729 18.3281 24.1729C21.4901 25.4194 22.1323 25.1734 22.8193 25.1104C23.5063 25.0489 25.0357 24.2065 25.3477 23.332C25.6597 22.4575 25.6604 21.7053 25.5674 21.5508C25.4744 21.3948 25.2246 21.3018 24.8496 21.1143C24.4761 20.9268 22.6355 20.0229 22.292 19.8984C21.9485 19.7739 21.6972 19.7109 21.4482 20.0859C21.1992 20.4609 20.4836 21.3018 20.2646 21.5508C20.0456 21.8013 19.8281 21.835 19.4531 21.6475C19.0781 21.4585 17.8724 21.0621 16.4414 19.7871C15.3284 18.7956 14.5774 17.5723 14.3584 17.1973C14.1409 16.8238 14.3379 16.6186 14.5254 16.4326C14.6934 16.2646 14.8975 15.9954 15.085 15.7764C15.271 15.5574 15.3355 15.4013 15.46 15.1523C15.5845 14.9033 15.5207 14.6836 15.4277 14.4961C15.3347 14.3086 14.6064 12.4597 14.2734 11.7188C13.9929 11.0963 13.6967 11.0818 13.4297 11.0713C13.2122 11.0623 12.9638 11.0625 12.7148 11.0625Z" fill="white"/>
</svg>
